<svg viewBox="0 0 300 220" xmlns="http://www.w3.org/2000/svg" role="img" aria-label="Hydnum repandum — imenoforo (aghi)">
  <rect x="0" y="0" width="300" height="220" rx="14" fill="#eef2e6"/>
  <rect x="3" y="3" width="294" height="214" rx="12" fill="none" stroke="#2e7d32" stroke-width="5"/>
  
  <ellipse cx="150" cy="110" rx="85" ry="47" fill="#d97b29" stroke="#3a2f22" stroke-width="3"/>
  <line x1="162.0" y1="110.0" x2="235.0" y2="110.0" stroke="#3a2f22" stroke-width="2" opacity="0.5"/><line x1="161.7" y1="111.5" x2="232.9" y2="120.4" stroke="#3a2f22" stroke-width="2" opacity="0.5"/><line x1="160.8" y1="112.9" x2="226.6" y2="130.3" stroke="#3a2f22" stroke-width="2" opacity="0.5"/><line x1="159.4" y1="114.1" x2="216.5" y2="139.1" stroke="#3a2f22" stroke-width="2" opacity="0.5"/><line x1="157.5" y1="115.2" x2="203.0" y2="146.6" stroke="#3a2f22" stroke-width="2" opacity="0.5"/><line x1="155.2" y1="115.9" x2="186.9" y2="152.1" stroke="#3a2f22" stroke-width="2" opacity="0.5"/><line x1="152.7" y1="116.4" x2="168.9" y2="155.6" stroke="#3a2f22" stroke-width="2" opacity="0.5"/><line x1="150.0" y1="116.6" x2="150.0" y2="156.8" stroke="#3a2f22" stroke-width="2" opacity="0.5"/><line x1="147.3" y1="116.4" x2="131.1" y2="155.6" stroke="#3a2f22" stroke-width="2" opacity="0.5"/><line x1="144.8" y1="115.9" x2="113.1" y2="152.1" stroke="#3a2f22" stroke-width="2" opacity="0.5"/><line x1="142.5" y1="115.2" x2="97.0" y2="146.6" stroke="#3a2f22" stroke-width="2" opacity="0.5"/><line x1="140.6" y1="114.1" x2="83.5" y2="139.1" stroke="#3a2f22" stroke-width="2" opacity="0.5"/><line x1="139.2" y1="112.9" x2="73.4" y2="130.3" stroke="#3a2f22" stroke-width="2" opacity="0.5"/><line x1="138.3" y1="111.5" x2="67.1" y2="120.4" stroke="#3a2f22" stroke-width="2" opacity="0.5"/><line x1="138.0" y1="110.0" x2="65.0" y2="110.0" stroke="#3a2f22" stroke-width="2" opacity="0.5"/><line x1="138.3" y1="108.5" x2="67.1" y2="99.6" stroke="#3a2f22" stroke-width="2" opacity="0.5"/><line x1="139.2" y1="107.1" x2="73.4" y2="89.7" stroke="#3a2f22" stroke-width="2" opacity="0.5"/><line x1="140.6" y1="105.9" x2="83.5" y2="80.9" stroke="#3a2f22" stroke-width="2" opacity="0.5"/><line x1="142.5" y1="104.8" x2="97.0" y2="73.4" stroke="#3a2f22" stroke-width="2" opacity="0.5"/><line x1="144.8" y1="104.1" x2="113.1" y2="67.9" stroke="#3a2f22" stroke-width="2" opacity="0.5"/><line x1="147.3" y1="103.6" x2="131.1" y2="64.4" stroke="#3a2f22" stroke-width="2" opacity="0.5"/><line x1="150.0" y1="103.4" x2="150.0" y2="63.2" stroke="#3a2f22" stroke-width="2" opacity="0.5"/><line x1="152.7" y1="103.6" x2="168.9" y2="64.4" stroke="#3a2f22" stroke-width="2" opacity="0.5"/><line x1="155.2" y1="104.1" x2="186.9" y2="67.9" stroke="#3a2f22" stroke-width="2" opacity="0.5"/><line x1="157.5" y1="104.8" x2="203.0" y2="73.4" stroke="#3a2f22" stroke-width="2" opacity="0.5"/><line x1="159.4" y1="105.9" x2="216.5" y2="80.9" stroke="#3a2f22" stroke-width="2" opacity="0.5"/><line x1="160.8" y1="107.1" x2="226.6" y2="89.7" stroke="#3a2f22" stroke-width="2" opacity="0.5"/><line x1="161.7" y1="108.5" x2="232.9" y2="99.6" stroke="#3a2f22" stroke-width="2" opacity="0.5"/>

  <text x="150" y="205" font-family="sans-serif" font-size="12" fill="#4a4a3a" text-anchor="middle">Hydnum repandum — imenoforo (aghi)</text>
</svg>